# xmcd CD database file
#
# Track frame offsets:
#	150
#	45524
#	72970
#	104170
#	132606
#	155707
#	194744
#	226616
#	277404
#
# Disc length: 4118 seconds
#
# Revision: 0
# Processed by: cddbd v1.5.2PL0 Copyright (c) Steve Scherf et al.
# Submitted via: CDex 1.51
#
DISCID=8f101409
DTITLE=Andrew Lahiff - Following Circular Pathways
DYEAR=2006
DGENRE=New Age
TTITLE0=the motion of clouds
TTITLE1=Spherical influence
TTITLE2=Within fading dreams
TTITLE3=Falling into
TTITLE4=Solitude
TTITLE5=They never arrived
TTITLE6=Invisible boundaries
TTITLE7=The place between realities
TTITLE8=Forever
EXTD=YEAR: 2006
EXTT0=
EXTT1=
EXTT2=
EXTT3=
EXTT4=
EXTT5=
EXTT6=
EXTT7=
EXTT8=
PLAYORDER=
